<svg width="22" height="22" viewBox="0 0 22 22" fill="none" xmlns="http://www.w3.org/2000/svg">
<path fill-rule="evenodd" clip-rule="evenodd" d="M4.4596 2.38065H21.461C21.7586 2.38065 21.9997 2.62184 21.9997 2.91936V3.45806C21.9919 4.35217 21.7505 5.22872 21.2994 6.00073L18.7675 10.4504C18.2197 11.4351 17.1899 12.0546 16.0632 12.0773H9.35102C9.11815 12.0723 8.88669 12.0397 8.66148 11.9803L7.58407 14.2321H19.3062C19.6037 14.2321 19.8449 14.4733 19.8449 14.7708V15.8482C19.8449 16.1457 19.6037 16.3869 19.3062 16.3869H5.83868C5.54383 16.3937 5.26809 16.2414 5.11682 15.9883L4.87979 15.5789C4.75522 15.3391 4.75522 15.0537 4.87979 14.8139L6.88376 10.8275C6.77432 10.7119 6.67686 10.5856 6.59286 10.4504L1.98157 2.38065H0.990362C0.692845 2.38065 0.45166 2.13947 0.45166 1.84195V0.764549C0.45166 0.467032 0.692845 0.225847 0.990362 0.225847H1.98157C2.75447 0.222779 3.46981 0.633894 3.85626 1.30325L4.4596 2.38065ZM6.91601 17.4644C5.72594 17.4644 4.7612 18.4291 4.7612 19.6192C4.7612 20.8092 5.72594 21.774 6.91601 21.774C8.10607 21.774 9.07081 20.8092 9.07081 19.6192C9.07081 18.4291 8.10607 17.4644 6.91601 17.4644ZM19.8449 19.6192C19.8449 20.8092 18.8801 21.774 17.69 21.774C16.5 21.774 15.5352 20.8092 15.5352 19.6192C15.5352 18.4291 16.5 17.4644 17.69 17.4644C18.8801 17.4644 19.8449 18.4291 19.8449 19.6192Z" fill="#07484A"/>
</svg>
