<svg width="23" height="22" viewBox="0 0 23 22" fill="none" xmlns="http://www.w3.org/2000/svg">
<path fill-rule="evenodd" clip-rule="evenodd" d="M17.5107 15.1378L22.2982 19.9311C22.512 20.1689 22.5015 20.5329 22.2743 20.7579L21.4365 21.5968C21.3241 21.7102 21.1711 21.774 21.0116 21.774C20.852 21.774 20.699 21.7102 20.5867 21.5968L15.7991 16.8034C15.6667 16.6708 15.5465 16.5264 15.44 16.372L14.5424 15.1737C13.0571 16.3612 11.2127 17.0077 9.31196 17.0072C5.39527 17.0208 1.99181 14.3157 1.11653 10.4934C0.241251 6.67117 2.12775 2.75181 5.65917 1.05573C9.19059 -0.640348 13.4244 0.339511 15.8542 3.4152C18.2839 6.4909 18.261 10.8416 15.7991 13.8915L16.996 14.7183C17.1829 14.8381 17.3556 14.9788 17.5107 15.1378ZM3.32727 8.6188C3.32727 11.9279 6.0066 14.6105 9.31172 14.6105C10.8989 14.6105 12.4211 13.9792 13.5434 12.8555C14.6657 11.7319 15.2962 10.2079 15.2962 8.6188C15.2962 5.30969 12.6168 2.62713 9.31172 2.62713C6.0066 2.62713 3.32727 5.30969 3.32727 8.6188Z" fill="#07484A"/>
</svg>
